<?xml version="1.0" encoding="utf-8"?>
<!-- Generator: Adobe Illustrator 26.5.0, SVG Export Plug-In . SVG Version: 6.00 Build 0)  -->
<svg version="1.1" id="Ebene_1" xmlns="http://www.w3.org/2000/svg" xmlns:xlink="http://www.w3.org/1999/xlink" x="0px" y="0px"
	 width="384px" height="512px" viewBox="0 0 384 512" style="enable-background:new 0 0 384 512;" xml:space="preserve">
<style type="text/css">
	.st0{fill:#FFFFFF;}
</style>
<g>
	<path class="st0" d="M336,1c25.9,0,47,21.1,47,47v439.7c0,12.8-10.5,23.3-23.3,23.3c-4.9,0-9.5-1.5-13.4-4.2L192.6,399.2l-0.6-0.4
		l-0.6,0.4L37.7,506.8c-3.9,2.8-8.5,4.2-13.4,4.2C11.5,511,1,500.5,1,487.7V48C1,22.1,22.1,1,48,1H336 M336,0H48C21.5,0,0,21.5,0,48
		v439.7C0,501.1,10.9,512,24.3,512c5,0,9.9-1.5,13.9-4.4L192,400l153.7,107.6c4.1,2.9,9,4.4,14,4.4c13.4,0,24.3-10.9,24.3-24.3V48
		C384,21.5,362.5,0,336,0L336,0z"/>
</g>
</svg>
