<?xml version="1.0" encoding="utf-8"?>
<!-- Generator: Adobe Illustrator 26.5.0, SVG Export Plug-In . SVG Version: 6.00 Build 0)  -->
<svg version="1.1" id="Ebene_1" xmlns="http://www.w3.org/2000/svg" xmlns:xlink="http://www.w3.org/1999/xlink" x="0px" y="0px"
	 width="384px" height="512px" viewBox="0 0 384 512" style="enable-background:new 0 0 384 512;" xml:space="preserve">
<style type="text/css">
	.st0{fill:#FFFFFF;}
</style>
<path class="st0" d="M336,0H48C21.5,0,0,21.5,0,48v439.7C0,501.1,10.9,512,24.4,512c4.9,0,9.8-1.5,13.9-4.4L192,400l153.7,107.6
	c4.1,2.9,9,4.4,14,4.4c13.4,0,24.3-10.9,24.3-24.3V48C384,21.5,362.5,0,336,0z M360,487.7c0,0.1-0.2,0.3-0.3,0.3c-0.1,0-0.2,0-0.2,0
	L192,370.7L24.4,488c-0.4,0-0.4-0.2-0.4-0.3V48c0-13.2,10.8-24,24-24h288c13.2,0,24,10.8,24,24V487.7z"/>
</svg>
