<?xml version="1.0" encoding="utf-8"?>
<!-- Generator: Adobe Illustrator 26.5.0, SVG Export Plug-In . SVG Version: 6.00 Build 0)  -->
<svg version="1.1" id="Ebene_1" xmlns="http://www.w3.org/2000/svg" xmlns:xlink="http://www.w3.org/1999/xlink" x="0px" y="0px"
	 width="576px" height="512px" viewBox="0 0 576 512" style="enable-background:new 0 0 576 512;" xml:space="preserve">
<style type="text/css">
	.st0{fill:#FFFFFF;}
</style>
<g>
	<path class="st0" d="M288.4,1c7.8,0,15.2,2.5,20.4,6.8l255.3,224.5c8.1,7.1,11.7,14.9,10.7,23.1l0,0.1v0.1c0,8.3-3.3,16.2-9.3,22.1
		c-5.8,5.7-13.7,9-21.7,9h-32h-1l0,1l0.7,160.1c0,2.5-0.2,4.9-0.5,8l0,0.1v0.1V472c0,21.5-17.5,39-39,39h-16c-0.2,0-0.5-0.1-0.9-0.2
		c-0.4-0.1-0.9-0.3-1.4-0.3c-0.4,0-0.7,0.1-1.1,0.2c-0.4-0.1-0.8-0.2-1.2-0.2c-0.6,0-1.1,0.1-1.7,0.2c-0.4,0.1-0.9,0.2-1.2,0.2H392
		c-21.5,0-39-17.5-39-39v-88c0-18.2-14.8-33-33-33h-64c-18.2,0-33,14.8-33,33v88c0,21.5-17.5,39-39,39h-55.9c-1.5,0-3-0.1-4.4-0.2
		l-0.1,0l-0.1,0c-1.2,0.1-2.4,0.2-3.5,0.2h-16c-21.5,0-39-17.5-39-39V360c0-0.9,0-1.9,0.1-2.7l0,0v0v-69.6v-1h-1h-32
		c-17.4,0-31-13.7-31-31.1c0-9.1,3.2-16.7,9.7-23.3L267.1,8.8l0,0l0,0C273.9,1.9,281.7,1,288.4,1 M288.4,0c-7,0-15,1-22,8L10,231.5
		c-7,7-10,15-10,24c0,18,14,32.1,32,32.1h32v69.6c-0.1,0.9-0.1,1.9-0.1,2.8v112c0,22.1,17.9,40,40,40h16c1.2,0,2.4-0.1,3.6-0.2
		c1.5,0.1,3,0.2,4.5,0.2H184c22.1,0,40-17.9,40-40v-88c0-17.7,14.3-32,32-32h64c17.7,0,32,14.3,32,32v88c0,22.1,17.9,40,40,40h56.5
		c1,0,1.9-0.4,2.9-0.4c0.4,0,0.9,0.1,1.3,0.3c0.3-0.2,0.7-0.3,1-0.3c0.8,0,1.5,0.4,2.3,0.4h16c22.1,0,40-17.9,40-40v-16.2
		c0.3-2.7,0.5-5.3,0.5-8.1l-0.7-160.1h32c17,0,32-14.1,32-32.1c1.1-9-3-17-11-24L309.5,7C303.4,2,295.4,0,288.4,0L288.4,0z"/>
</g>
</svg>
