<?xml version="1.0" encoding="utf-8"?>
<!-- Generator: Adobe Illustrator 26.5.0, SVG Export Plug-In . SVG Version: 6.00 Build 0)  -->
<svg version="1.1" id="Ebene_1" xmlns="http://www.w3.org/2000/svg" xmlns:xlink="http://www.w3.org/1999/xlink" x="0px" y="0px"
	 width="576px" height="512px" viewBox="0 0 576 512" style="enable-background:new 0 0 576 512;" xml:space="preserve">
<style type="text/css">
	.st0{fill:#FFFFFF;}
</style>
<path class="st0" d="M564.8,231.5L309.5,7c-6.1-5-14.1-7-21.1-7s-15,1-22,8L10,231.5c-7,7-10,15-10,24c0,18,14,32.1,32,32.1h32.1
	v69.6c-0.1,0.9-0.1,1.9-0.1,2.8v112c0,22.1,17.9,40,40,40h16c1.2,0,2.4-0.1,3.6-0.2c1.5,0.1,3,0.2,4.5,0.2H184c22.1,0,40-17.9,40-40
	v-88c0-17.7,14.3-32,32-32h64c17.7,0,32,14.3,32,32v88c0,22.1,17.9,40,40,40h56.5c1.4,0,2.8-0.9,4.2-0.1c1.1-0.8,2.2,0.1,3.3,0.1h16
	c22.1,0,40-17.9,40-40v-16.2c0.3-2.7,0.5-5.3,0.5-8.1l-0.7-160.1h32c17,0,32-14.1,32-32.1C576.9,246.5,572.8,238.5,564.8,231.5z
	 M551.8,254l0,1.5c0,4.6-4.2,8.1-8,8.1h-56.1l0.8,184.2c0,1.6-0.1,3.2-0.4,5.4l-0.1,1.3V472c0,8.8-7.2,16-16,16h-13.5
	c-1.3-0.2-2.9-0.4-4.7-0.4c-0.4,0-0.8,0-1.1,0c-0.4,0-0.8,0-1.2,0c-1.9,0-3.6,0.2-4.9,0.4H392c-8.8,0-16-7.2-16-16v-88
	c0-30.9-25.1-56-56-56h-64c-30.9,0-56,25.1-56,56v88c0,8.8-7.2,16-16,16h-55.9c-0.7,0-1.7-0.1-2.9-0.1l-1.8-0.1l-1.8,0.1
	c-0.6,0-1.4,0.1-1.6,0.1h-16c-8.8,0-16-7.2-16-16c0,0,0-112.4,0-112.6l0.1-0.9v-94.9H32c-4.7,0-8-3.3-8-8.1c0-2.8,0.6-4.5,2.5-6.6
	L282.8,25.6l0.6-0.6c0.5-0.5,1-1,5-1c2.6,0,4.7,0.7,5.7,1.4L549,249.5c1.9,1.6,2.7,2.8,3,3.3L551.8,254z"/>
</svg>
