<?xml version="1.0" encoding="utf-8"?>
<!-- Generator: Adobe Illustrator 26.5.0, SVG Export Plug-In . SVG Version: 6.00 Build 0)  -->
<svg version="1.1" id="Ebene_1" xmlns="http://www.w3.org/2000/svg" xmlns:xlink="http://www.w3.org/1999/xlink" x="0px" y="0px"
	 width="576px" height="512px" viewBox="0 0 576 512" style="enable-background:new 0 0 576 512;" xml:space="preserve">
<style type="text/css">
	.st0{display:none;fill:#606060;}
	.st1{display:none;opacity:0.6;}
	.st2{display:none;fill:#FFFFFF;}
	.st3{fill:#FFFFFF;}
	.st4{fill:#49B696;}
</style>
<rect x="-49" y="-36.8" class="st0" width="655.8" height="667.7"/>
<path class="st1" d="M575.8,255.5c0,18-15,32.1-32,32.1h-31.3V472c0,22.1-18.4,40-40.5,40h-16c-1.1,0-2.2,0-3.3-0.1
	c-1.4,0.1-2.8,0.1-4.2,0.1H416h-24c-22.1,0-40-17.9-40-40v-24v-64c0-17.7-14.3-32-32-32h-64c-17.7,0-32,14.3-32,32v64v24
	c0,22.1-17.9,40-40,40h-24h-31.9c-1.5,0-3-0.1-4.5-0.2c-1.2,0.1-2.4,0.2-3.6,0.2h-16c-22.1,0-40-17.9-40-40V360c0-0.9,0-1.9,0.1-2.8
	v-69.6H32c-18,0-32-14-32-32.1c0-9,3-17,10-24L266.4,8c7-7,15-8,22-8s15,2,21,7l255.4,224.5C572.8,238.5,576.8,246.5,575.8,255.5z"
	/>
<path class="st1" d="M-230.3,714.5v-79.8c0-44.2-36-80.2-80.2-80.2h-64c-44.2,0-80.2,36-80.2,80.2v79.8h-47.5c-0.5,0-1-0.1-1.5-0.1
	l-3.6-0.2c0,0-3.9,0.3-4,0.3h-7v-103l0.1-0.9V490.1h-38l214.2-186.7l212.4,186.7h-36.5v224.4h-8.3l-2.8-0.3l-3.6,0.3
	c-0.2,0-0.3,0-0.5,0C-181.6,714.5-230.3,714.5-230.3,714.5z"/>
<path class="st2" d="M575.8,255.5c0,18-15,32.1-32,32.1h-31.3V472c0,22.1-18.4,40-40.5,40h-16c-1.1,0-2.2,0-3.3-0.1
	c-1.4,0.1-2.8,0.1-4.2,0.1H416h-24c-22.1,0-40-17.9-40-40v-24v-64c0-17.7-14.3-32-32-32h-64c-17.7,0-32,14.3-32,32v64v24
	c0,22.1-17.9,40-40,40h-24h-31.9c-1.5,0-3-0.1-4.5-0.2c-1.2,0.1-2.4,0.2-3.6,0.2h-16c-22.1,0-40-17.9-40-40V360c0-0.9,0-1.9,0.1-2.8
	v-69.6H32c-18,0-32-14-32-32.1c0-9,3-17,10-24L266.4,8c7-7,15-8,22-8s15,2,21,7l255.4,224.5C572.8,238.5,576.8,246.5,575.8,255.5z
	 M449.1,463.8c0.2,0,0.3,0,0.5,0l3.6-0.3l2.8,0.3h8.3V239.4h36.5L288.4,52.7L74.3,239.4h38v120.5l-0.1,0.9v103h7c0.1,0,4-0.3,4-0.3
	l3.6,0.2c0.5,0,1,0.1,1.5,0.1h47.5V384c0-44.2,36-80.2,80.2-80.2h64c44.2,0,80.2,36,80.2,80.2v79.8
	C400.2,463.8,448.9,463.8,449.1,463.8z"/>
<path class="st3" d="M880.1,299.4h-96c-97.2,0-176,78.8-176,176c0,17.7,14.3,32,32,32h384c17.7,0,32-14.3,32-32
	C1056.1,378.2,977.3,299.4,880.1,299.4z M657.1,459.4c7.9-63.1,61.8-112,127-112h96c65.2,0,119.1,49,127,112H657.1z M832.1,251.4
	c70.7,0,128-57.3,128-128s-57.3-128-128-128s-128,57.3-128,128C704.1,194.1,761.4,251.4,832.1,251.4z M832.1,43.4
	c44.1,0,80,35.9,80,80s-35.9,80-80,80s-80-35.9-80-80C752.1,79.3,788,43.4,832.1,43.4z"/>
<path class="st3" d="M-143.1-2.6h-288c-26.5,0-48,21.5-48,48v431.9c0,24.7,26.8,40.1,48.1,27.6l143.9-83.9l143.9,83.9
	c21.3,11.6,48.1-2.9,48.1-27.6V45.4C-95.1,18.9-116.6-2.6-143.1-2.6z M-143.1,449.4l-144-84l-144,84v-398c0-3.4,2.6-6,5.1-6h276
	c4.3,0,6.9,2.6,6.9,6V449.4z"/>
<rect x="736.5" y="572.1" class="st4" width="48" height="79"/>
<path class="st3" d="M287.1,51.4"/>
<path class="st3" d="M321.1,352c17.7,0,32,14.3,32,32v64v24c0,22.1,17.9,40,40,40h24H449c1.5,0,3-0.1,4.5-0.2
	c1.2,0.1,2.4,0.2,3.6,0.2h16c22.1,0,40-17.9,40-40V360c0-0.9,0-1.9-0.1-2.8v-69.6v-39.8l25.9,24.2c14.3,13.4,38,3.5,38.2-16.1
	c0-0.1,0-0.3,0-0.4c0-9-3-17-10-24L310.7,8c-7-7-14.6-6.7-21.6-6.7s-16-0.3-23,6.7L9.7,231.5c-7,7-10,15-10,24c0,0.1,0,0.3,0,0.4
	C0,275.6,23.6,285.4,38,272l25.9-24.2v39.8v69.6c-0.1,0.9-0.1,1.9-0.1,2.8v112c0,22.1,17.9,40,40,40h16c1.2,0,2.4-0.1,3.6-0.2
	c1.5,0.1,3,0.2,4.5,0.2h31.9h24c22.1,0,40-17.9,40-40v-24v-64c0-17.7,14.3-32,32-32H321.1z M288.7,52.7 M255.7,303.8
	c-44.3,0-80.2,35.9-80.2,80.2v79.8H128c-0.5,0-1-0.1-1.5-0.1l-3.6-0.2c0,0-3.9,0.3-4,0.3h-7v-103l0.1-0.9V321v-81.6v-33.1
	c0,0,177.1-153.5,177.1-153.5l175.7,153.5v33.1V321v38.9l0.1,0.9v103h-7c-0.1,0-4-0.3-4-0.3l-3.6,0.2c-0.5,0-1,0.1-1.5,0.1h-47.5
	V384c0-44.3-35.9-80.2-80.2-80.2H255.7z"/>
</svg>
