<?xml version="1.0" encoding="utf-8"?>
<!-- Generator: Adobe Illustrator 26.5.0, SVG Export Plug-In . SVG Version: 6.00 Build 0)  -->
<svg version="1.1" id="Ebene_1" xmlns="http://www.w3.org/2000/svg" xmlns:xlink="http://www.w3.org/1999/xlink" x="0px" y="0px"
	 width="448px" height="512px" viewBox="0 0 448 512" style="enable-background:new 0 0 448 512;" xml:space="preserve">
<style type="text/css">
	.st0{fill:#FFFFFF;}
</style>
<path class="st0" d="M64,32C28.7,32,0,60.7,0,96v320c0,35.3,28.7,64,64,64h320c35.3,0,64-28.7,64-64V96c0-35.3-28.7-64-64-64H64z
	 M200,344v-64h-64c-13.3,0-24-10.7-24-24s10.7-24,24-24h64v-64c0-13.3,10.7-24,24-24s24,10.7,24,24v64h64c13.3,0,24,10.7,24,24
	c0,13.3-10.7,24-24,24h-64v64c0,13.3-10.7,24-24,24S200,357.3,200,344z"/>
</svg>
