<?xml version="1.0" encoding="utf-8"?>
<!-- Generator: Adobe Illustrator 26.5.0, SVG Export Plug-In . SVG Version: 6.00 Build 0)  -->
<svg version="1.1" id="Ebene_1" xmlns="http://www.w3.org/2000/svg" xmlns:xlink="http://www.w3.org/1999/xlink" x="0px" y="0px"
	 width="448px" height="512px" viewBox="0 0 448 512" style="enable-background:new 0 0 448 512;" xml:space="preserve">
<style type="text/css">
	.st0{fill:#FFFFFF;}
</style>
<g>
	<path class="st0" d="M224,1c33.9,0,65.8,13.2,89.8,37.2c24,24,37.2,55.9,37.2,89.8s-13.2,65.8-37.2,89.8
		c-24,24-55.9,37.2-89.8,37.2s-65.8-13.2-89.8-37.2c-24-24-37.2-55.9-37.2-89.8s13.2-65.8,37.2-89.8C158.2,14.2,190.1,1,224,1
		 M274.7,305c46,0,89.3,17.9,121.8,50.5S447,431.3,447,477.3c0,18.6-15.1,33.7-33.6,33.7l-0.1,0H34.7C16.1,511,1,495.9,1,477.3
		c0-46,17.9-89.3,50.5-121.8C84,322.9,127.3,305,173.3,305H274.7 M224,0C153.3,0,96,57.3,96,128s57.3,128,128,128s128-57.3,128-128
		S294.7,0,224,0L224,0z M274.7,304H173.3C77.6,304,0,381.6,0,477.3C0,496.4,15.5,512,34.7,512h378.7c0,0,0,0,0.1,0
		c19.1,0,34.6-15.5,34.6-34.7C448,381.6,370.4,304,274.7,304L274.7,304z"/>
</g>
</svg>
