<?xml version="1.0" encoding="utf-8"?>
<!-- Generator: Adobe Illustrator 26.5.0, SVG Export Plug-In . SVG Version: 6.00 Build 0)  -->
<svg version="1.1" id="Ebene_1" xmlns="http://www.w3.org/2000/svg" xmlns:xlink="http://www.w3.org/1999/xlink" x="0px" y="0px"
	 width="448px" height="512px" viewBox="0 0 448 512" style="enable-background:new 0 0 448 512;" xml:space="preserve">
<style type="text/css">
	.st0{fill:#FFFFFF;}
</style>
<g>
	<path class="st0" d="M224,256c70.7,0,128-57.3,128-128S294.7,0,224,0S96,57.3,96,128S153.3,256,224,256z M224,24
		c57.3,0,104,46.7,104,104s-46.7,104-104,104c-57.3,0-104-46.7-104-104S166.7,24,224,24z"/>
	<path class="st0" d="M274.7,304H173.3C77.6,304,0,381.6,0,477.3C0,496.4,15.5,512,34.7,512h378.7c19.1,0,34.6-15.5,34.6-34.7
		C448,381.6,370.4,304,274.7,304z M413.4,488H34.7c-5.9,0-10.7-4.8-10.7-10.7C24,395,91,328,173.3,328h101.4
		C357,328,424,395,424,477.3C424,483.2,419.2,488,413.4,488z"/>
</g>
</svg>
